<?xml version="1.0" encoding="UTF-8"?> <svg xmlns="http://www.w3.org/2000/svg" xmlns:xlink="http://www.w3.org/1999/xlink" width="280" height="66" viewBox="0 0 140 33"><defs><polygon id="logo-a" points="0 .101 15.27 .101 15.27 15.782 0 15.782"></polygon></defs><g fill="none" fill-rule="evenodd"><g transform="translate(0 .34)"><mask id="logo-b" fill="#fff"><use xlink:href="#logo-a"></use></mask><path fill="#22362A" d="M6.97950143,13.9299361 C5.95617765,13.9299361 5.281851,13.9295386 5.281851,13.9295386 L5.281851,7.23014096 C5.281851,7.23014096 6.08935817,7.2245747 7.20213754,7.2245747 C9.3157765,7.2245747 10.9528539,8.57002048 10.9528539,10.6657193 C10.9528539,12.6950205 9.33824069,13.9299361 6.97950143,13.9299361 L6.97950143,13.9299361 Z M6.21170774,1.78593614 C7.11829799,1.78593614 8.73692264,2.05033373 8.73692264,3.77746627 C8.73692264,4.92411687 7.72844126,5.65846627 6.39302579,5.65846627 L5.281851,5.65846627 L5.27623496,1.78593614 L6.21170774,1.78593614 Z M10.9271805,6.65721325 C11.8458052,6.39281566 12.5277536,5.15153855 12.5277536,3.96075542 C12.5277536,1.64479157 10.651192,0.100948193 6.6453467,0.100948193 L0.0288424069,0.100948193 C0.0288424069,0.100948193 0.0184126074,1.42611687 0.0276389685,1.42611687 C0.0649455587,1.42691205 0.131535817,1.43049036 0.218584527,1.4455988 C0.95669341,1.55135783 1.52591977,2.17438193 1.52591977,2.93536988 C1.52591977,2.95047831 1.52632092,3.09241807 1.52632092,3.15245422 C1.52632092,3.15245422 1.52591977,13.102153 1.52591977,13.104141 L1.52591977,13.1053337 C1.52591977,13.9406711 0.843169054,14.6173699 -4.01146132e-05,14.6173699 C-0.000441260745,14.6173699 0.00236676218,15.7823096 0.00236676218,15.7823096 L8.87090544,15.7823096 C10.9408195,15.7823096 12.2882693,15.6280446 13.6457479,14.5915265 C14.691937,13.7975386 15.2699885,12.6290205 15.2699885,11.4155747 C15.2699885,8.92308072 13.8543438,7.0552012 10.9271805,6.65721325 L10.9271805,6.65721325 Z" mask="url(#logo-b)"></path></g><path fill="#22362A" d="M69.9978338 1.76490361L69.9978338.45086747 64.7753123.45086747 64.7753123 1.76410843 64.7769169 1.76410843C65.6201261 1.76410843 66.3028768 2.44080723 66.3028768 3.27574699 66.3028768 3.30238554 66.3040802 10.7766867 66.3040802 10.7766867L58.2887794.45086747 53.1930201.45086747 53.1930201 1.76410843C53.9808711 1.76490361 54.6215014 2.36049398 54.7009284 3.12068675 54.7045387 3.14414458 54.7169742 3.24831325 54.7169742 3.27574699L54.7169742 13.4194699C54.7169742 14.2508313 54.0394384 14.924747 53.2022464 14.9307108L53.2006418 14.9338916 53.1986361 16.1115542 58.3657994 16.1115542 58.3657994 14.9338916C58.3657994 14.9338916 58.364596 14.9311084 58.3641948 14.9311084 58.361788 14.9311084 58.3597822 14.9319036 58.3573754 14.9319036 57.5149685 14.9319036 56.8318166 14.2548072 56.8318166 13.4194699 56.8318166 13.3721566 56.827404 4.38780723 56.827404 4.38780723L66.2049971 16.1051928 66.2062006 16.1115542 68.4646533 16.1115542C68.4646533 16.1115542 68.4634499 3.28807229 68.4634499 3.27574699 68.4634499 2.44080723 69.1462006 1.76410843 69.9894097 1.76410843 69.9922178 1.76410843 69.9946246 1.76490361 69.9978338 1.76490361M93.5218854 9.54797349L95.7911691 3.98687711 98.1210258 9.54797349 93.5218854 9.54797349zM104.792888 14.7257928C103.962917 14.3512627 103.72584 13.4467446 103.322287 12.3454193L98.4018281.450708434 95.0045215.450708434 90.0515702 12.3672867C89.5802235 13.3584795 89.2051519 14.0367687 88.6190774 14.4494675 88.0330029 14.8625639 87.5179312 14.9333349 87.5179312 14.9333349L87.5175301 16.1265036 93.4195931 16.1229253 93.4131748 14.9333349C93.4131748 14.9333349 92.9711117 14.9325398 92.897702 14.9325398 92.4861261 14.9325398 91.7764986 14.6904072 91.7764986 14.1942145 91.7764986 14.0856723 91.7989628 13.8534795 91.9076734 13.6236723 92.0155817 13.3930699 92.702745 11.7104675 92.702745 11.7104675L99.0151805 11.7104675C99.0151805 11.7104675 99.628533 13.1688289 99.804235 13.5966361 99.9671003 13.9930337 100.02647 14.0944193 100.02647 14.2260217 100.02647 14.6331542 99.7873868 14.9325398 99.3758109 14.9325398L98.8330602 14.9325398 98.8342636 16.1229253 105.643719 16.1121904 105.653347 14.9333349C105.653347 14.9333349 105.30796 14.9460578 104.792888 14.7257928L104.792888 14.7257928zM114.376791 9.55751566C112.785043 9.55751566 112.403954 9.52888916 112.403954 9.52888916L112.403954 2.57940723C112.403954 2.57940723 112.897364 2.58775663 114.398854 2.58775663 116.976619 2.58775663 118.556332 3.8429494 118.556332 6.24399759 118.556332 8.62238313 116.976619 9.55751566 114.376791 9.55751566M122.859828 14.8852265C122.372436 14.8017325 121.617077 13.8431422 121.123668 13.2924795L119.038911 10.8914313C121.594212 10.1869012 122.365616 8.09120241 122.365616 5.99908193 122.365616 3.67556386 121.277307.450708434 114.05106.450708434L107.203496.450708434 107.2051 1.76434699C107.207908 1.76434699 107.209513 1.7639494 107.212722 1.7639494 107.979713 1.7639494 108.608711 2.32773253 108.715817 3.0589012 108.723438 3.10382892 108.726648 3.15233494 108.730258 3.20004578 108.731461 3.22588916 108.737479 3.24974458 108.737479 3.27598554 108.737479 3.28035904 108.737077 3.28393735 108.736275 3.28751566 108.737077 3.29705783 108.738682 3.30500964 108.738682 3.31415422L108.738682 13.248347C108.738682 13.3032145 108.735473 13.3545036 108.73106 13.4046 108.73106 13.4101663 108.733066 13.4149373 108.733066 13.4209012 108.733066 14.255841 108.049513 14.9333349 107.207106 14.9333349 107.2051 14.9333349 107.203897 14.9329373 107.201891 14.9329373L107.199484 14.9333349 107.199484 16.1117928 113.933926 16.1117928 113.93553 14.9333349 113.935129 14.9329373C113.933926 14.9329373 113.932722 14.9333349 113.932321 14.9333349 113.089112 14.9333349 112.406361 14.255841 112.406361 13.4209012 112.406361 13.3974434 112.411977 13.3755759 112.412779 13.3517205 112.40957 13.3175277 112.403954 13.2849253 112.403954 13.248347L112.403954 11.6695157 115.682521 11.6695157C115.682521 11.6695157 117.055244 13.6411663 117.468424 14.0987928 117.649742 14.2995759 117.613238 14.5862386 117.393811 14.7325518 117.084928 14.9377084 116.547794 14.9333349 116.547794 14.9333349L116.552206 16.1117928 123.455931 16.1117928 123.455931 14.9333349C123.455931 14.9333349 123.259771 14.9544072 122.859828 14.8852265M33.2347966 5.90755663L33.2275759 5.88489398C32.7453983 4.41420723 31.4364585 1.88433976 30.3068309 2.67315904L29.8743954 2.6624241 29.9522178 1.80800241 29.2076905 2.16503855 29.0640802 1.76068916C29.4720458.452219277 26.639553.000159036145 25.0794957.000159036145L25.0080917.000159036145C23.4480344.000159036145 20.6640802.452219277 21.0720458 1.76068916L20.9276332 2.16503855 20.1237364 1.80800241 20.2444814 2.64015904 19.8116447 2.65049639C18.6824183 1.86127952 17.3738797 4.39154458 16.8921032 5.86183373L16.8600115 5.93220723C16.378235 7.40249639 15.9606418 10.1645566 17.3421891 10.1840386L17.6859713 10.4448578 17.0686074 11.0790145 17.9302693 11.2352675 17.8071175 11.6463759C16.7011576 12.4674 18.7241375 14.4827855 19.9861433 15.3916771L20.0057994 15.4055928C21.2678052 16.3144843 23.8267163 17.5987012 24.2727908 16.3025566L24.6286074 16.0592313 25.0726762 16.7951711 25.4629914 16.073147 25.8192092 16.3164723C26.2648825 17.6126169 28.8241948 16.3284 30.0866017 15.4195084L30.1058567 15.4055928C31.3678625 14.4967012 33.3908424 12.4813157 32.2852837 11.6602916L32.1617307 11.2499783 32.9756562 11.1048578 32.4329054 10.4675205 32.7766877 10.2067012C34.1578338 10.1868217 33.7169742 7.37784578 33.2347966 5.90755663"></path><path fill="#FEFEFE" d="M22.0992607,1.58881084 C23.4110086,0.770172289 23.7860802,1.4130759 25.0504928,1.43494337 L25.072957,1.43494337 C26.3373696,1.4130759 26.7124413,0.770172289 28.0241891,1.58881084 C28.6231003,1.96294337 28.4237307,3.85388313 28.4237307,3.85388313 C28.4237307,3.85388313 30.2000057,3.11436506 30.7439599,3.56364217 C31.9345616,4.54688313 31.4339312,5.09873855 31.8033868,6.29826867 L31.8102063,6.31854578 C32.2225845,7.50416024 32.9550774,7.65961807 32.5747908,9.14859398 C32.4010946,9.82887108 30.5241318,10.2248711 30.5241318,10.2248711 C30.5241318,10.2248711 31.7833295,11.6709072 31.5201777,12.3225578 C30.944533,13.7487145 30.2605788,13.447341 29.2244183,14.1665819 L29.2059656,14.1793048 C28.1958797,14.9339313 28.273702,15.671859 26.7272837,15.7736422 C26.0204642,15.8205578 25.0224126,14.1610157 25.0224126,14.1610157 C25.0224126,14.1610157 24.0624699,15.8078349 23.3556504,15.7613169 C21.8092321,15.6591361 21.8870544,14.9208108 20.8769685,14.1665819 L20.8593181,14.1530639 C19.8223553,13.4338229 19.1384011,13.7351964 18.5627564,12.3090398 C18.2996046,11.6581843 19.5836734,10.2034012 19.5836734,10.2034012 C19.5836734,10.2034012 17.7071117,9.8074012 17.5334155,9.1271241 C17.1531289,7.63814819 17.8856218,7.48308795 18.2971977,6.29747349 L18.3040172,6.27719639 C18.6738739,5.07766627 18.1736447,4.52581084 19.3642464,3.54256988 C19.9082006,3.09329277 21.6945043,3.8880759 21.6945043,3.8880759 C21.6945043,3.8880759 21.5003496,1.96294337 22.0992607,1.58881084"></path><path fill="#EC1D24" d="M21.5230143,7.41696867 L24.407255,7.41696867 L24.407255,3.37029398 L24.7297765,3.37029398 C24.7297765,3.37029398 24.7309799,3.21523373 24.9219255,3.03631807 C25.1746476,2.79895663 25.4755072,2.75919759 25.7635301,2.91743855 C26.4157937,3.27686024 26.2164241,4.03983614 26.8819255,4.33007711 C27.613616,4.64894458 28.0275989,4.31695663 28.6004355,4.55431807 C29.2458797,4.82269157 29.1997479,5.46519759 29.9988309,5.09583614 C29.545937,5.57890843 28.9012951,5.47036627 28.453616,5.01631807 C27.9469685,4.50223373 26.8955645,5.55783614 26.2296619,5.0564747 C25.4759083,4.48831807 25.7843897,3.41164337 25.4650774,3.41164337 C25.3278854,3.41164337 25.2949914,3.5261494 25.2949914,3.72216145 L25.2949914,8.03283614 L28.8455358,8.03283614 L29.9105788,10.7595108 L29.688745,10.7595108 L29.688745,12.2989807 L30.7096619,12.4313783 L29.9992321,12.6516434 L29.688745,12.8707157 L27.2477708,12.8707157 L26.9818109,12.7391133 L26.8045043,12.8269807 L26.3600344,12.9593783 L22.5880573,13.0031133 L22.3662235,12.8269807 L22.0557364,12.7828482 L21.8780287,12.9152458 L21.5675415,12.9593783 L21.1684011,12.9593783 L20.9461662,12.7828482 L20.3247908,12.7828482 L20.1920115,12.6516434 L19.6592894,12.5633783 L19.7479427,12.3876434 L20.1025559,12.3876434 L20.1920115,12.2111133 L20.5911519,12.2111133 L20.5911519,10.4959084 L20.2806648,10.4959084 L21.5230143,7.41696867 Z"></path><polygon fill="#FEFEFE" points="24.81 8.649 24.184 10.452 24.184 12.343 25.437 12.343 25.437 10.452"></polygon><polygon fill="#FEFEFE" points="26.283 8.833 25.688 10.547 25.688 12.344 26.878 12.344 26.878 10.591"></polygon><polygon fill="#FEFEFE" points="27.698 9.009 27.132 10.636 27.132 12.343 28.264 12.343 28.264 10.681"></polygon><polygon fill="#FEFEFE" points="29.026 9.179 28.489 10.726 28.489 12.347 29.564 12.347 29.564 10.77"></polygon><polygon fill="#FEFEFE" points="20.868 12.347 23.926 12.347 23.926 10.456 20.868 10.456"></polygon><path fill="#22362A" d="M79.2083496 14.0041663C78.3823897 14.0041663 77.6635358 14.0037687 77.6635358 14.0037687 77.6635358 14.0037687 77.6579198 13.6010096 77.6579198 12.6758169L77.6579198 2.56628675 78.7494384 2.56628675C82.338894 2.56628675 83.7557421 5.40388916 83.7557421 8.77704578 83.7557421 13.6308289 80.0351117 14.0041663 79.2083496 14.0041663M77.7200974.451106024L72.4450258.451106024 72.4450258 1.76434699C72.4787221 1.76434699 72.5100115 1.77150361 72.5429054 1.77388916 72.5473181 1.77468434 72.5513295 1.77468434 72.5557421 1.77508193 73.3443954 1.83352771 73.9681777 2.47921446 73.9681777 3.27598554L73.9681777 13.2487446C73.9681777 13.2889012 73.9697822 13.4002265 73.9697822 13.4209012 73.9697822 14.1914313 73.3857135 14.8208169 72.6339656 14.9142506 72.5942521 14.9210096 72.5493238 14.9237928 72.5047966 14.9269735 72.483937 14.9277687 72.4650831 14.9329373 72.4446246 14.9329373 72.4406132 14.9329373 72.4382063 14.9317446 72.434596 14.9317446 72.4285788 14.9317446 72.423765 14.9329373 72.4165444 14.9329373L72.4165444 16.1117928 79.4735072 16.1117928C85.2347679 16.1117928 87.5064585 12.6817807 87.5064585 8.54047952 87.5064585 5.67703373 86.036659.451106024 77.7200974.451106024M51.2339026 1.76390964L51.2339026.450668675 46.1734441.450668675 46.1734441 1.76709036C46.1734441 1.76709036 46.2207794 1.76828313 46.2921834 1.77901807 47.0635874 1.85495783 47.6681146 2.49229518 47.6681146 3.27594578 47.6681146 3.30576506 47.6588883 10.7375241 47.6588883 11.0019217 47.6588883 13.1823072 45.9299484 14.5842108 43.5090315 14.5842108 41.1326418 14.5842108 39.8858797 13.1604398 39.8858797 10.7593916L39.8858797 5.40663253 39.8858797 3.27594578C39.8858797 2.44140361 40.5686304 1.76390964 41.4118395 1.76390964 41.4222693 1.76390964 41.4310946 1.76709036 41.4415244 1.76709036L41.4435301 1.76709036 41.4467393.450668675 34.5947622.450668675 34.5967679 1.76390964 34.5991748 1.76390964C35.4415817 1.76390964 36.1243324 2.42907831 36.1243324 3.24731928 36.1243324 4.06635542 36.1114957 10.7108855 36.1114957 11.3323193 36.1114957 14.7901627 38.3531003 16.3761506 43.1728711 16.3761506 47.3873123 16.3761506 49.7135587 14.8346928 49.7135587 11.7724518 49.7135587 10.956994 49.6790602 3.48269277 49.7127564 3.24890964 49.728 2.42709036 50.4015244 1.76430723 51.2339026 1.76390964M139.64314 1.76390964L139.64314.449475904 134.025891.449475904 134.025891 1.74442771 134.0291 1.74442771C134.403771 1.74442771 134.707037 2.04540361 134.707037 2.4171506 134.707037 2.6565 134.611163 2.77458434 134.585089 2.8091747 133.789616 3.85523494 131.845662 6.05430723 131.845662 6.05430723 131.845662 6.05430723 130.037295 3.93435542 129.290762 2.84416265 129.202911 2.7308494 129.148355 2.59089759 129.148355 2.43623494 129.148355 2.06528313 129.452424 1.76390964 129.827496 1.76390964 129.848756 1.76390964 129.869616 1.76828313 129.890877 1.77066867 129.899702 1.76709036 129.907324 1.76390964 129.907324 1.76390964L129.907324.449475904 123.21741.449475904 123.21741 1.76390964 123.426407 1.76390964C124.000447 1.76390964 124.434086 2.25851205 124.721708 2.57857229 124.886178 2.76305422 128.402625 6.96439157 129.369387 8.11939157 129.37059 9.29069277 129.375404 13.3787169 129.375404 13.4192711 129.375404 14.255006 128.692653 14.9317048 127.850246 14.9317048 127.84784 14.9317048 127.845834 14.9309096 127.843427 14.9309096 127.843026 14.9317048 127.84102 14.9332952 127.84102 14.9332952L127.84102 16.1121506 134.622797 16.1121506 134.620791 14.9332952C134.620791 14.9332952 134.619989 14.9309096 134.619989 14.9301145 133.782395 14.9249458 133.104458 14.2506325 133.104458 13.4192711L133.104458 8.24423494C134.442281 6.57793373 137.355003 2.95031928 137.605318 2.62866867 137.930648 2.20881325 138.261192 1.90863253 138.656722 1.82195783 138.767438 1.79770482 138.96039 1.76390964 139.130877 1.76390964L139.64314 1.76390964zM39.8723209 31.9710759C41.7845845 31.9710759 42.8997708 30.4522807 42.8997708 28.3995217 42.8997708 27.3789072 42.6302006 26.5161361 42.1030946 25.8485819 41.563553 25.1683048 40.8162178 24.8275699 39.8602865 24.8275699 38.9163897 24.8275699 38.1810888 25.1683048 37.6415473 25.8485819 37.1144413 26.528859 36.8448711 27.3789072 36.8448711 28.3995217 36.8448711 30.5007867 38.0338682 31.9710759 39.8723209 31.9710759M44.0638968 28.3995217C44.0638968 31.0474735 42.4091691 32.9423892 39.8723209 32.9423892 37.2492264 32.9423892 35.680745 30.9381361 35.680745 28.3995217 35.680745 27.0870759 36.0606304 26.0060277 36.8204011 25.1436542 37.5805731 24.2808831 38.5978797 23.8562566 39.8723209 23.8562566 42.5319198 23.8562566 44.0638968 25.9090157 44.0638968 28.3995217M51.1239885 24.0627651L51.1239885 29.6505C51.1239885 31.0599578 51.9451347 31.9712349 53.5505215 31.9712349 55.0704642 31.9712349 55.830235 31.0599578 55.830235 29.6505L55.830235 24.0627651 56.9947622 24.0627651 56.9947622 29.6628253C56.9947622 31.679006 55.8547049 32.9425482 53.5505215 32.9425482 51.160894 32.9425482 49.9594613 31.7517651 49.9594613 29.6628253L49.9594613 24.0627651 51.1239885 24.0627651z"></path><polygon fill="#22362A" points="69.46 24.063 69.46 25.034 66.543 25.034 66.543 32.736 65.379 32.736 65.379 25.034 62.461 25.034 62.461 24.063"></polygon><polygon fill="#22362A" points="76.127 24.063 76.127 31.764 80.76 31.764 80.76 32.736 74.963 32.736 74.963 24.063"></polygon><polygon fill="#22362A" points="92.343 24.063 92.343 25.034 87.465 25.034 87.465 27.792 92.012 27.792 92.012 28.763 87.465 28.763 87.465 31.764 92.379 31.764 92.379 32.736 86.3 32.736 86.3 24.063"></polygon><polygon fill="#22362A" points="104.391 24.063 104.391 25.034 101.474 25.034 101.474 32.736 100.31 32.736 100.31 25.034 97.393 25.034 97.393 24.063"></polygon></g></svg> 